<svg xmlns="http://www.w3.org/2000/svg" width="64" height="64" viewBox="0 0 64 64" role="img" aria-label="SAMS">
  <defs>
    <linearGradient id="g" x1="0" x2="1" y1="0" y2="1">
      <stop offset="0%" stop-color="#0d6efd"/>
      <stop offset="100%" stop-color="#ff7ab3"/>
    </linearGradient>
  </defs>
  <rect width="64" height="64" rx="12" fill="url(#g)" />
  <!-- White pill / cross base -->
  <g transform="translate(8,8) scale(0.8)">
    <rect x="8" y="12" width="40" height="20" rx="10" fill="#fff" opacity="0.98"/>
    <rect x="24" y="6" width="16" height="40" rx="4" fill="#fff" opacity="0.98" transform="rotate(45 32 26)"/>
  </g>
  <!-- Heart overlay in center -->
  <path d="M32 42c4.4-3.6 10-7.6 12-10.4C48.8 27 44 22 38 22c-3.2 0-5.4 1.6-6 3.1C31.4 23.6 29.2 22 26 22c-6 0-10.8 5-6 9.6 2 2.8 7.6 6.8 12 10.4z" fill="#ff4d7e" opacity="0.98"/>
</svg>
